<mxfile host="app.diagrams.net" modified="2023-03-19T09:17:19.668Z" agent="5.0 (Windows NT 10.0; Win64; x64) AppleWebKit/537.36 (KHTML, like Gecko) Chrome/109.0.0.0 Safari/537.36" etag="0cX8_vQtA5IS6u3rDHj-" version="21.0.8" type="github" pages="6">
  <diagram id="HF3RktrZU0UXcG0_zIV3" name="Spring实例化示意图">
    <mxGraphModel dx="1053" dy="593" grid="1" gridSize="10" guides="1" tooltips="1" connect="1" arrows="1" fold="1" page="0" pageScale="1" pageWidth="827" pageHeight="1169" math="0" shadow="0">
      <root>
        <mxCell id="0" />
        <mxCell id="1" parent="0" />
        <mxCell id="wbdFMkh82YjmVdSIFq4g-1" value="&amp;lt;bean id=&quot;userService&quot; class=&quot;com.UserService&quot;&amp;gt;&amp;lt;/bean&amp;gt;" style="rounded=0;whiteSpace=wrap;html=1;fontSize=12;fillColor=#ffe6cc;strokeColor=#d79b00;" parent="1" vertex="1">
          <mxGeometry x="-200" y="220" width="170" height="60" as="geometry" />
        </mxCell>
        <mxCell id="wbdFMkh82YjmVdSIFq4g-2" value="" style="rounded=0;whiteSpace=wrap;html=1;fontSize=16;fillColor=#f9f7ed;strokeColor=#36393d;" parent="1" vertex="1">
          <mxGeometry x="10" y="150" width="420" height="250" as="geometry" />
        </mxCell>
        <mxCell id="wbdFMkh82YjmVdSIFq4g-3" value="ApplicationContext" style="text;html=1;strokeColor=none;fillColor=none;align=center;verticalAlign=middle;whiteSpace=wrap;rounded=0;fontSize=12;" parent="1" vertex="1">
          <mxGeometry x="190" y="120" width="60" height="30" as="geometry" />
        </mxCell>
        <mxCell id="wbdFMkh82YjmVdSIFq4g-4" value="BeanDefinition&lt;br style=&quot;font-size: 12px;&quot;&gt;Reader" style="rounded=0;whiteSpace=wrap;html=1;fontSize=12;fillColor=#eeeeee;strokeColor=#36393d;" parent="1" vertex="1">
          <mxGeometry x="25" y="180" width="110" height="200" as="geometry" />
        </mxCell>
        <mxCell id="wbdFMkh82YjmVdSIFq4g-5" value="Reader" style="text;html=1;strokeColor=none;fillColor=none;align=center;verticalAlign=middle;whiteSpace=wrap;rounded=0;fontSize=12;" parent="1" vertex="1">
          <mxGeometry x="50" y="150" width="60" height="30" as="geometry" />
        </mxCell>
        <mxCell id="wbdFMkh82YjmVdSIFq4g-7" value="" style="rounded=0;whiteSpace=wrap;html=1;fontSize=16;fillColor=#f5f5f5;fontColor=#333333;strokeColor=#666666;" parent="1" vertex="1">
          <mxGeometry x="150" y="180" width="270" height="200" as="geometry" />
        </mxCell>
        <mxCell id="wbdFMkh82YjmVdSIFq4g-8" value="" style="rounded=0;whiteSpace=wrap;html=1;fontSize=16;fillColor=#fad9d5;strokeColor=#ae4132;" parent="1" vertex="1">
          <mxGeometry x="165" y="210" width="110" height="160" as="geometry" />
        </mxCell>
        <mxCell id="wbdFMkh82YjmVdSIFq4g-9" value="" style="rounded=0;whiteSpace=wrap;html=1;fontSize=16;fillColor=#cce5ff;strokeColor=#36393d;" parent="1" vertex="1">
          <mxGeometry x="300" y="210" width="110" height="160" as="geometry" />
        </mxCell>
        <mxCell id="wbdFMkh82YjmVdSIFq4g-10" value="beanDefinitionMap" style="text;html=1;strokeColor=none;fillColor=none;align=center;verticalAlign=middle;whiteSpace=wrap;rounded=0;fontSize=12;" parent="1" vertex="1">
          <mxGeometry x="190" y="180" width="60" height="30" as="geometry" />
        </mxCell>
        <mxCell id="wbdFMkh82YjmVdSIFq4g-12" value="singletonObjects" style="text;html=1;strokeColor=none;fillColor=none;align=center;verticalAlign=middle;whiteSpace=wrap;rounded=0;fontSize=12;" parent="1" vertex="1">
          <mxGeometry x="325" y="180" width="60" height="30" as="geometry" />
        </mxCell>
        <mxCell id="wbdFMkh82YjmVdSIFq4g-14" value="" style="endArrow=classic;html=1;rounded=0;fontSize=9;startSize=6;endSize=6;sourcePerimeterSpacing=0;targetPerimeterSpacing=0;curved=1;exitX=1;exitY=0.5;exitDx=0;exitDy=0;" parent="1" source="wbdFMkh82YjmVdSIFq4g-1" edge="1">
          <mxGeometry width="50" height="50" relative="1" as="geometry">
            <mxPoint x="120" y="260" as="sourcePoint" />
            <mxPoint x="25" y="250" as="targetPoint" />
          </mxGeometry>
        </mxCell>
        <mxCell id="wbdFMkh82YjmVdSIFq4g-16" value="" style="endArrow=classic;html=1;rounded=0;fontSize=9;startSize=6;endSize=6;sourcePerimeterSpacing=0;targetPerimeterSpacing=0;curved=1;exitX=0.994;exitY=0.349;exitDx=0;exitDy=0;exitPerimeter=0;entryX=0.994;entryY=0.349;entryDx=0;entryDy=0;entryPerimeter=0;movable=1;resizable=1;rotatable=1;deletable=1;editable=1;connectable=1;" parent="1" source="wbdFMkh82YjmVdSIFq4g-4" edge="1">
          <mxGeometry width="50" height="50" relative="1" as="geometry">
            <mxPoint x="140" y="250" as="sourcePoint" />
            <mxPoint x="165" y="250" as="targetPoint" />
          </mxGeometry>
        </mxCell>
        <mxCell id="wbdFMkh82YjmVdSIFq4g-17" value="" style="endArrow=classic;html=1;rounded=0;fontSize=9;startSize=6;endSize=6;sourcePerimeterSpacing=0;targetPerimeterSpacing=0;curved=1;entryX=0;entryY=0.25;entryDx=0;entryDy=0;exitX=1;exitY=0.25;exitDx=0;exitDy=0;" parent="1" source="wbdFMkh82YjmVdSIFq4g-8" target="wbdFMkh82YjmVdSIFq4g-9" edge="1">
          <mxGeometry width="50" height="50" relative="1" as="geometry">
            <mxPoint x="170" y="370" as="sourcePoint" />
            <mxPoint x="220" y="320" as="targetPoint" />
          </mxGeometry>
        </mxCell>
        <mxCell id="wbdFMkh82YjmVdSIFq4g-18" value="BeanDefinition" style="ellipse;whiteSpace=wrap;html=1;fontSize=12;fillColor=#dae8fc;strokeColor=#6c8ebf;rounded=0;" parent="1" vertex="1">
          <mxGeometry x="172.5" y="230" width="95" height="40" as="geometry" />
        </mxCell>
        <mxCell id="wbdFMkh82YjmVdSIFq4g-19" value="userService&lt;br style=&quot;font-size: 12px;&quot;&gt;实例" style="ellipse;whiteSpace=wrap;html=1;fontSize=12;fillColor=#d5e8d4;strokeColor=#82b366;rounded=0;" parent="1" vertex="1">
          <mxGeometry x="307.5" y="230" width="95" height="40" as="geometry" />
        </mxCell>
        <mxCell id="wbdFMkh82YjmVdSIFq4g-20" value="执行 getBean，从单例池获取实例bean" style="text;html=1;strokeColor=none;fillColor=none;align=center;verticalAlign=middle;whiteSpace=wrap;rounded=0;fontSize=12;" parent="1" vertex="1">
          <mxGeometry x="-200" y="320" width="140" height="30" as="geometry" />
        </mxCell>
        <mxCell id="wbdFMkh82YjmVdSIFq4g-22" value="" style="edgeStyle=elbowEdgeStyle;elbow=vertical;endArrow=classic;html=1;curved=0;rounded=0;endSize=8;startSize=8;fontSize=9;sourcePerimeterSpacing=0;targetPerimeterSpacing=0;exitX=0.5;exitY=1;exitDx=0;exitDy=0;" parent="1" source="wbdFMkh82YjmVdSIFq4g-9" target="wbdFMkh82YjmVdSIFq4g-20" edge="1">
          <mxGeometry width="50" height="50" relative="1" as="geometry">
            <mxPoint x="257.5" y="500" as="sourcePoint" />
            <mxPoint x="307.5" y="450" as="targetPoint" />
            <Array as="points">
              <mxPoint x="110" y="420" />
            </Array>
          </mxGeometry>
        </mxCell>
        <mxCell id="wbdFMkh82YjmVdSIFq4g-23" value="BeanFactory" style="text;html=1;strokeColor=none;fillColor=none;align=center;verticalAlign=middle;whiteSpace=wrap;rounded=0;fontSize=12;" parent="1" vertex="1">
          <mxGeometry x="247.5" y="150" width="60" height="30" as="geometry" />
        </mxCell>
      </root>
    </mxGraphModel>
  </diagram>
  <diagram id="DgO-oa957dzN2zTk_qSJ" name="Spring实例化示意图(完善1)">
    <mxGraphModel dx="1543" dy="605" grid="1" gridSize="10" guides="1" tooltips="1" connect="1" arrows="1" fold="1" page="1" pageScale="1" pageWidth="827" pageHeight="1169" math="0" shadow="0">
      <root>
        <mxCell id="0" />
        <mxCell id="1" parent="0" />
        <mxCell id="z_pm5Gy4KzRUDsKMytj9-1" value="&amp;lt;bean id=&quot;userService&quot; class=&quot;com.UserService&quot;&amp;gt;&amp;lt;/bean&amp;gt;" style="rounded=0;whiteSpace=wrap;html=1;fontSize=12;fillColor=#ffe6cc;strokeColor=#d79b00;" parent="1" vertex="1">
          <mxGeometry x="-200" y="220" width="170" height="60" as="geometry" />
        </mxCell>
        <mxCell id="z_pm5Gy4KzRUDsKMytj9-2" value="" style="rounded=0;whiteSpace=wrap;html=1;fontSize=16;fillColor=#f9f7ed;strokeColor=#36393d;" parent="1" vertex="1">
          <mxGeometry x="10" y="150" width="420" height="250" as="geometry" />
        </mxCell>
        <mxCell id="z_pm5Gy4KzRUDsKMytj9-3" value="ApplicationContext" style="text;html=1;strokeColor=none;fillColor=none;align=center;verticalAlign=middle;whiteSpace=wrap;rounded=0;fontSize=12;" parent="1" vertex="1">
          <mxGeometry x="190" y="120" width="60" height="30" as="geometry" />
        </mxCell>
        <mxCell id="z_pm5Gy4KzRUDsKMytj9-4" value="BeanDefinition&lt;br style=&quot;font-size: 12px;&quot;&gt;Reader" style="rounded=0;whiteSpace=wrap;html=1;fontSize=12;fillColor=#eeeeee;strokeColor=#36393d;" parent="1" vertex="1">
          <mxGeometry x="25" y="180" width="110" height="200" as="geometry" />
        </mxCell>
        <mxCell id="z_pm5Gy4KzRUDsKMytj9-5" value="Reader" style="text;html=1;strokeColor=none;fillColor=none;align=center;verticalAlign=middle;whiteSpace=wrap;rounded=0;fontSize=12;" parent="1" vertex="1">
          <mxGeometry x="50" y="150" width="60" height="30" as="geometry" />
        </mxCell>
        <mxCell id="z_pm5Gy4KzRUDsKMytj9-6" value="" style="rounded=0;whiteSpace=wrap;html=1;fontSize=16;fillColor=#f5f5f5;fontColor=#333333;strokeColor=#666666;" parent="1" vertex="1">
          <mxGeometry x="150" y="180" width="270" height="200" as="geometry" />
        </mxCell>
        <mxCell id="z_pm5Gy4KzRUDsKMytj9-7" value="" style="rounded=0;whiteSpace=wrap;html=1;fontSize=16;fillColor=#fad9d5;strokeColor=#ae4132;" parent="1" vertex="1">
          <mxGeometry x="165" y="210" width="110" height="60" as="geometry" />
        </mxCell>
        <mxCell id="z_pm5Gy4KzRUDsKMytj9-8" value="" style="rounded=0;whiteSpace=wrap;html=1;fontSize=16;fillColor=#cce5ff;strokeColor=#36393d;" parent="1" vertex="1">
          <mxGeometry x="310" y="210" width="100" height="60" as="geometry" />
        </mxCell>
        <mxCell id="z_pm5Gy4KzRUDsKMytj9-9" value="beanDefinitionMap" style="text;html=1;strokeColor=none;fillColor=none;align=center;verticalAlign=middle;whiteSpace=wrap;rounded=0;fontSize=12;" parent="1" vertex="1">
          <mxGeometry x="190" y="180" width="60" height="30" as="geometry" />
        </mxCell>
        <mxCell id="z_pm5Gy4KzRUDsKMytj9-10" value="singletonObjects" style="text;html=1;strokeColor=none;fillColor=none;align=center;verticalAlign=middle;whiteSpace=wrap;rounded=0;fontSize=12;" parent="1" vertex="1">
          <mxGeometry x="325" y="180" width="60" height="30" as="geometry" />
        </mxCell>
        <mxCell id="z_pm5Gy4KzRUDsKMytj9-11" value="" style="endArrow=classic;html=1;rounded=0;fontSize=9;startSize=6;endSize=6;sourcePerimeterSpacing=0;targetPerimeterSpacing=0;curved=1;exitX=1;exitY=0.5;exitDx=0;exitDy=0;" parent="1" source="z_pm5Gy4KzRUDsKMytj9-1" edge="1">
          <mxGeometry width="50" height="50" relative="1" as="geometry">
            <mxPoint x="120" y="260" as="sourcePoint" />
            <mxPoint x="25" y="250" as="targetPoint" />
          </mxGeometry>
        </mxCell>
        <mxCell id="z_pm5Gy4KzRUDsKMytj9-12" value="" style="endArrow=classic;html=1;rounded=0;fontSize=9;startSize=6;endSize=6;sourcePerimeterSpacing=0;targetPerimeterSpacing=0;curved=1;exitX=0.994;exitY=0.349;exitDx=0;exitDy=0;exitPerimeter=0;entryX=0.994;entryY=0.349;entryDx=0;entryDy=0;entryPerimeter=0;movable=1;resizable=1;rotatable=1;deletable=1;editable=1;connectable=1;" parent="1" source="z_pm5Gy4KzRUDsKMytj9-4" edge="1">
          <mxGeometry width="50" height="50" relative="1" as="geometry">
            <mxPoint x="140" y="250" as="sourcePoint" />
            <mxPoint x="165" y="250" as="targetPoint" />
          </mxGeometry>
        </mxCell>
        <mxCell id="z_pm5Gy4KzRUDsKMytj9-14" value="BeanDefinition" style="ellipse;whiteSpace=wrap;html=1;fontSize=12;fillColor=#dae8fc;strokeColor=#6c8ebf;rounded=0;" parent="1" vertex="1">
          <mxGeometry x="172.5" y="220" width="87.5" height="30" as="geometry" />
        </mxCell>
        <mxCell id="z_pm5Gy4KzRUDsKMytj9-15" value="userService&lt;br style=&quot;font-size: 12px;&quot;&gt;实例" style="ellipse;whiteSpace=wrap;html=1;fontSize=12;fillColor=#d5e8d4;strokeColor=#82b366;rounded=0;" parent="1" vertex="1">
          <mxGeometry x="313.75" y="220" width="92.5" height="30" as="geometry" />
        </mxCell>
        <mxCell id="z_pm5Gy4KzRUDsKMytj9-16" value="执行 getBean，从单例池获取实例bean" style="text;html=1;strokeColor=none;fillColor=none;align=center;verticalAlign=middle;whiteSpace=wrap;rounded=0;fontSize=12;" parent="1" vertex="1">
          <mxGeometry x="-200" y="320" width="140" height="30" as="geometry" />
        </mxCell>
        <mxCell id="z_pm5Gy4KzRUDsKMytj9-17" value="" style="edgeStyle=elbowEdgeStyle;elbow=vertical;endArrow=classic;html=1;curved=0;rounded=0;endSize=8;startSize=8;fontSize=9;sourcePerimeterSpacing=0;targetPerimeterSpacing=0;exitX=0.5;exitY=1;exitDx=0;exitDy=0;" parent="1" source="z_pm5Gy4KzRUDsKMytj9-8" target="z_pm5Gy4KzRUDsKMytj9-16" edge="1">
          <mxGeometry width="50" height="50" relative="1" as="geometry">
            <mxPoint x="257.5" y="500" as="sourcePoint" />
            <mxPoint x="307.5" y="450" as="targetPoint" />
            <Array as="points">
              <mxPoint x="110" y="420" />
            </Array>
          </mxGeometry>
        </mxCell>
        <mxCell id="z_pm5Gy4KzRUDsKMytj9-18" value="BeanFactory" style="text;html=1;strokeColor=none;fillColor=none;align=center;verticalAlign=middle;whiteSpace=wrap;rounded=0;fontSize=12;" parent="1" vertex="1">
          <mxGeometry x="247.5" y="150" width="60" height="30" as="geometry" />
        </mxCell>
        <mxCell id="z_pm5Gy4KzRUDsKMytj9-19" value="BeanDefinition&lt;br&gt;RegistryPostProcessor" style="rounded=0;whiteSpace=wrap;html=1;fillColor=#dae8fc;strokeColor=#6c8ebf;" parent="1" vertex="1">
          <mxGeometry x="155" y="290" width="130" height="30" as="geometry" />
        </mxCell>
        <mxCell id="z_pm5Gy4KzRUDsKMytj9-21" value="BeanFactory&lt;br&gt;PostProcessor" style="rounded=0;whiteSpace=wrap;html=1;fillColor=#dae8fc;strokeColor=#6c8ebf;" parent="1" vertex="1">
          <mxGeometry x="156" y="341" width="130" height="30" as="geometry" />
        </mxCell>
        <mxCell id="z_pm5Gy4KzRUDsKMytj9-22" value="" style="endArrow=classic;html=1;rounded=0;exitX=0.5;exitY=1;exitDx=0;exitDy=0;" parent="1" source="z_pm5Gy4KzRUDsKMytj9-7" target="z_pm5Gy4KzRUDsKMytj9-19" edge="1">
          <mxGeometry width="50" height="50" relative="1" as="geometry">
            <mxPoint x="190" y="340" as="sourcePoint" />
            <mxPoint x="240" y="290" as="targetPoint" />
          </mxGeometry>
        </mxCell>
        <mxCell id="z_pm5Gy4KzRUDsKMytj9-25" value="" style="edgeStyle=elbowEdgeStyle;elbow=horizontal;endArrow=classic;html=1;curved=0;rounded=0;endSize=8;startSize=8;exitX=1;exitY=0.5;exitDx=0;exitDy=0;entryX=0;entryY=0.5;entryDx=0;entryDy=0;" parent="1" source="z_pm5Gy4KzRUDsKMytj9-21" target="z_pm5Gy4KzRUDsKMytj9-8" edge="1">
          <mxGeometry y="-10" width="50" height="50" relative="1" as="geometry">
            <mxPoint x="300" y="370" as="sourcePoint" />
            <mxPoint x="350" y="320" as="targetPoint" />
            <Array as="points">
              <mxPoint x="290" y="340" />
            </Array>
            <mxPoint as="offset" />
          </mxGeometry>
        </mxCell>
        <mxCell id="z_pm5Gy4KzRUDsKMytj9-26" value="" style="endArrow=classic;html=1;rounded=0;exitX=0.5;exitY=1;exitDx=0;exitDy=0;" parent="1" source="z_pm5Gy4KzRUDsKMytj9-19" edge="1">
          <mxGeometry width="50" height="50" relative="1" as="geometry">
            <mxPoint x="160" y="300" as="sourcePoint" />
            <mxPoint x="220" y="340" as="targetPoint" />
          </mxGeometry>
        </mxCell>
      </root>
    </mxGraphModel>
  </diagram>
  <diagram id="tQGR0g8ClhNKtv5TOQEd" name="Spring实例化示意图(完善2)">
    <mxGraphModel dx="1535" dy="659" grid="1" gridSize="10" guides="1" tooltips="1" connect="1" arrows="1" fold="1" page="1" pageScale="1" pageWidth="827" pageHeight="1169" math="0" shadow="0">
      <root>
        <mxCell id="0" />
        <mxCell id="1" parent="0" />
        <mxCell id="GecQuVnroi5EFIGODDpq-1" value="&amp;lt;bean id=&quot;userService&quot; class=&quot;com.UserService&quot;&amp;gt;&amp;lt;/bean&amp;gt;" style="rounded=0;whiteSpace=wrap;html=1;fontSize=12;fillColor=#ffe6cc;strokeColor=#d79b00;" parent="1" vertex="1">
          <mxGeometry x="-200" y="220" width="170" height="60" as="geometry" />
        </mxCell>
        <mxCell id="GecQuVnroi5EFIGODDpq-2" value="" style="rounded=0;whiteSpace=wrap;html=1;fontSize=16;fillColor=#f9f7ed;strokeColor=#36393d;" parent="1" vertex="1">
          <mxGeometry x="10" y="150" width="420" height="290" as="geometry" />
        </mxCell>
        <mxCell id="GecQuVnroi5EFIGODDpq-3" value="ApplicationContext" style="text;html=1;strokeColor=none;fillColor=none;align=center;verticalAlign=middle;whiteSpace=wrap;rounded=0;fontSize=12;" parent="1" vertex="1">
          <mxGeometry x="190" y="120" width="60" height="30" as="geometry" />
        </mxCell>
        <mxCell id="GecQuVnroi5EFIGODDpq-4" value="BeanDefinition&lt;br style=&quot;font-size: 12px;&quot;&gt;Reader" style="rounded=0;whiteSpace=wrap;html=1;fontSize=12;fillColor=#eeeeee;strokeColor=#36393d;" parent="1" vertex="1">
          <mxGeometry x="25" y="180" width="110" height="250" as="geometry" />
        </mxCell>
        <mxCell id="GecQuVnroi5EFIGODDpq-5" value="Reader" style="text;html=1;strokeColor=none;fillColor=none;align=center;verticalAlign=middle;whiteSpace=wrap;rounded=0;fontSize=12;" parent="1" vertex="1">
          <mxGeometry x="50" y="150" width="60" height="30" as="geometry" />
        </mxCell>
        <mxCell id="GecQuVnroi5EFIGODDpq-6" value="" style="rounded=0;whiteSpace=wrap;html=1;fontSize=16;fillColor=#f5f5f5;fontColor=#333333;strokeColor=#666666;" parent="1" vertex="1">
          <mxGeometry x="150" y="180" width="270" height="250" as="geometry" />
        </mxCell>
        <mxCell id="GecQuVnroi5EFIGODDpq-7" value="" style="rounded=0;whiteSpace=wrap;html=1;fontSize=16;fillColor=#fad9d5;strokeColor=#ae4132;" parent="1" vertex="1">
          <mxGeometry x="165" y="210" width="110" height="60" as="geometry" />
        </mxCell>
        <mxCell id="GecQuVnroi5EFIGODDpq-8" value="" style="rounded=0;whiteSpace=wrap;html=1;fontSize=16;fillColor=#cce5ff;strokeColor=#36393d;" parent="1" vertex="1">
          <mxGeometry x="313.75" y="361" width="100" height="60" as="geometry" />
        </mxCell>
        <mxCell id="GecQuVnroi5EFIGODDpq-9" value="beanDefinitionMap" style="text;html=1;strokeColor=none;fillColor=none;align=center;verticalAlign=middle;whiteSpace=wrap;rounded=0;fontSize=12;" parent="1" vertex="1">
          <mxGeometry x="190" y="180" width="60" height="30" as="geometry" />
        </mxCell>
        <mxCell id="GecQuVnroi5EFIGODDpq-10" value="singletonObjects" style="text;html=1;strokeColor=none;fillColor=none;align=center;verticalAlign=middle;whiteSpace=wrap;rounded=0;fontSize=12;" parent="1" vertex="1">
          <mxGeometry x="333.75" y="396" width="60" height="30" as="geometry" />
        </mxCell>
        <mxCell id="GecQuVnroi5EFIGODDpq-11" value="" style="endArrow=classic;html=1;rounded=0;fontSize=9;startSize=6;endSize=6;sourcePerimeterSpacing=0;targetPerimeterSpacing=0;curved=1;exitX=1;exitY=0.5;exitDx=0;exitDy=0;" parent="1" source="GecQuVnroi5EFIGODDpq-1" edge="1">
          <mxGeometry width="50" height="50" relative="1" as="geometry">
            <mxPoint x="120" y="260" as="sourcePoint" />
            <mxPoint x="25" y="250" as="targetPoint" />
          </mxGeometry>
        </mxCell>
        <mxCell id="GecQuVnroi5EFIGODDpq-12" value="" style="endArrow=classic;html=1;rounded=0;fontSize=9;startSize=6;endSize=6;sourcePerimeterSpacing=0;targetPerimeterSpacing=0;curved=1;exitX=0.994;exitY=0.28;exitDx=0;exitDy=0;exitPerimeter=0;entryX=0.994;entryY=0.349;entryDx=0;entryDy=0;entryPerimeter=0;movable=1;resizable=1;rotatable=1;deletable=1;editable=1;connectable=1;" parent="1" source="GecQuVnroi5EFIGODDpq-4" edge="1">
          <mxGeometry width="50" height="50" relative="1" as="geometry">
            <mxPoint x="140" y="250" as="sourcePoint" />
            <mxPoint x="165" y="250" as="targetPoint" />
          </mxGeometry>
        </mxCell>
        <mxCell id="GecQuVnroi5EFIGODDpq-13" value="BeanDefinition" style="ellipse;whiteSpace=wrap;html=1;fontSize=12;fillColor=#dae8fc;strokeColor=#6c8ebf;rounded=0;" parent="1" vertex="1">
          <mxGeometry x="172.5" y="220" width="87.5" height="30" as="geometry" />
        </mxCell>
        <mxCell id="GecQuVnroi5EFIGODDpq-14" value="userService&lt;br style=&quot;font-size: 12px;&quot;&gt;处理后实例" style="ellipse;whiteSpace=wrap;html=1;fontSize=12;fillColor=#d5e8d4;strokeColor=#82b366;rounded=0;" parent="1" vertex="1">
          <mxGeometry x="317.5" y="366" width="92.5" height="30" as="geometry" />
        </mxCell>
        <mxCell id="GecQuVnroi5EFIGODDpq-15" value="执行 getBean，从单例池获取实例bean" style="text;html=1;strokeColor=none;fillColor=none;align=center;verticalAlign=middle;whiteSpace=wrap;rounded=0;fontSize=12;" parent="1" vertex="1">
          <mxGeometry x="-200" y="320" width="140" height="30" as="geometry" />
        </mxCell>
        <mxCell id="GecQuVnroi5EFIGODDpq-16" value="" style="edgeStyle=elbowEdgeStyle;elbow=vertical;endArrow=classic;html=1;curved=0;rounded=0;endSize=8;startSize=8;fontSize=9;sourcePerimeterSpacing=0;targetPerimeterSpacing=0;exitX=0.5;exitY=1;exitDx=0;exitDy=0;" parent="1" source="GecQuVnroi5EFIGODDpq-8" target="GecQuVnroi5EFIGODDpq-15" edge="1">
          <mxGeometry width="50" height="50" relative="1" as="geometry">
            <mxPoint x="257.5" y="500" as="sourcePoint" />
            <mxPoint x="307.5" y="450" as="targetPoint" />
            <Array as="points">
              <mxPoint x="290" y="450" />
              <mxPoint x="110" y="420" />
            </Array>
          </mxGeometry>
        </mxCell>
        <mxCell id="GecQuVnroi5EFIGODDpq-17" value="BeanFactory" style="text;html=1;strokeColor=none;fillColor=none;align=center;verticalAlign=middle;whiteSpace=wrap;rounded=0;fontSize=12;" parent="1" vertex="1">
          <mxGeometry x="247.5" y="150" width="60" height="30" as="geometry" />
        </mxCell>
        <mxCell id="GecQuVnroi5EFIGODDpq-18" value="BeanDefinition&lt;br&gt;RegistryPostProcessor" style="rounded=0;whiteSpace=wrap;html=1;fillColor=#dae8fc;strokeColor=#6c8ebf;" parent="1" vertex="1">
          <mxGeometry x="155" y="290" width="130" height="30" as="geometry" />
        </mxCell>
        <mxCell id="GecQuVnroi5EFIGODDpq-19" value="BeanFactory&lt;br&gt;PostProcessor" style="rounded=0;whiteSpace=wrap;html=1;fillColor=#dae8fc;strokeColor=#6c8ebf;" parent="1" vertex="1">
          <mxGeometry x="156" y="341" width="130" height="30" as="geometry" />
        </mxCell>
        <mxCell id="GecQuVnroi5EFIGODDpq-20" value="" style="endArrow=classic;html=1;rounded=0;exitX=0.5;exitY=1;exitDx=0;exitDy=0;" parent="1" source="GecQuVnroi5EFIGODDpq-7" target="GecQuVnroi5EFIGODDpq-18" edge="1">
          <mxGeometry width="50" height="50" relative="1" as="geometry">
            <mxPoint x="190" y="340" as="sourcePoint" />
            <mxPoint x="240" y="290" as="targetPoint" />
          </mxGeometry>
        </mxCell>
        <mxCell id="GecQuVnroi5EFIGODDpq-22" value="" style="endArrow=classic;html=1;rounded=0;exitX=0.5;exitY=1;exitDx=0;exitDy=0;" parent="1" source="GecQuVnroi5EFIGODDpq-18" edge="1">
          <mxGeometry width="50" height="50" relative="1" as="geometry">
            <mxPoint x="160" y="300" as="sourcePoint" />
            <mxPoint x="220" y="340" as="targetPoint" />
          </mxGeometry>
        </mxCell>
        <mxCell id="GecQuVnroi5EFIGODDpq-24" value="处理后BeanDefinition" style="ellipse;whiteSpace=wrap;html=1;fontSize=12;fillColor=#dae8fc;strokeColor=#6c8ebf;rounded=0;" parent="1" vertex="1">
          <mxGeometry x="171" y="387" width="100" height="39" as="geometry" />
        </mxCell>
        <mxCell id="GecQuVnroi5EFIGODDpq-27" value="userService&lt;br style=&quot;font-size: 12px;&quot;&gt;实例" style="ellipse;whiteSpace=wrap;html=1;fontSize=12;fillColor=#d5e8d4;strokeColor=#82b366;rounded=0;" parent="1" vertex="1">
          <mxGeometry x="313.75" y="200" width="92.5" height="30" as="geometry" />
        </mxCell>
        <mxCell id="GecQuVnroi5EFIGODDpq-28" value="BeanPostProcessor&lt;br&gt;#before()" style="rounded=0;whiteSpace=wrap;html=1;fillColor=#dae8fc;strokeColor=#6c8ebf;" parent="1" vertex="1">
          <mxGeometry x="305" y="250" width="110" height="30" as="geometry" />
        </mxCell>
        <mxCell id="GecQuVnroi5EFIGODDpq-29" value="BeanPostProcessor&lt;br&gt;#after()" style="rounded=0;whiteSpace=wrap;html=1;fillColor=#dae8fc;strokeColor=#6c8ebf;" parent="1" vertex="1">
          <mxGeometry x="305" y="304" width="110" height="30" as="geometry" />
        </mxCell>
        <mxCell id="GecQuVnroi5EFIGODDpq-30" value="" style="endArrow=classic;html=1;rounded=0;exitX=0.5;exitY=1;exitDx=0;exitDy=0;entryX=0.5;entryY=0;entryDx=0;entryDy=0;" parent="1" source="GecQuVnroi5EFIGODDpq-19" target="GecQuVnroi5EFIGODDpq-24" edge="1">
          <mxGeometry width="50" height="50" relative="1" as="geometry">
            <mxPoint x="130" y="340" as="sourcePoint" />
            <mxPoint x="180" y="290" as="targetPoint" />
          </mxGeometry>
        </mxCell>
        <mxCell id="GecQuVnroi5EFIGODDpq-31" value="" style="edgeStyle=elbowEdgeStyle;elbow=horizontal;endArrow=classic;html=1;curved=0;rounded=0;endSize=8;startSize=8;exitX=1;exitY=0.5;exitDx=0;exitDy=0;entryX=0;entryY=0.5;entryDx=0;entryDy=0;" parent="1" source="GecQuVnroi5EFIGODDpq-24" target="GecQuVnroi5EFIGODDpq-27" edge="1">
          <mxGeometry x="1" y="-54" width="50" height="50" relative="1" as="geometry">
            <mxPoint x="283.75" y="381" as="sourcePoint" />
            <mxPoint x="333.75" y="331" as="targetPoint" />
            <Array as="points">
              <mxPoint x="290" y="310" />
            </Array>
            <mxPoint x="50" y="-34" as="offset" />
          </mxGeometry>
        </mxCell>
        <mxCell id="GecQuVnroi5EFIGODDpq-32" value="" style="endArrow=classic;html=1;rounded=0;exitX=0.5;exitY=1;exitDx=0;exitDy=0;" parent="1" source="GecQuVnroi5EFIGODDpq-27" edge="1">
          <mxGeometry width="50" height="50" relative="1" as="geometry">
            <mxPoint x="363.33000000000004" y="240" as="sourcePoint" />
            <mxPoint x="360" y="250" as="targetPoint" />
          </mxGeometry>
        </mxCell>
        <mxCell id="GecQuVnroi5EFIGODDpq-33" value="" style="endArrow=classic;html=1;rounded=0;exitX=0.5;exitY=1;exitDx=0;exitDy=0;entryX=0.5;entryY=0;entryDx=0;entryDy=0;" parent="1" source="GecQuVnroi5EFIGODDpq-28" target="GecQuVnroi5EFIGODDpq-29" edge="1">
          <mxGeometry width="50" height="50" relative="1" as="geometry">
            <mxPoint x="220" y="360" as="sourcePoint" />
            <mxPoint x="360" y="300" as="targetPoint" />
          </mxGeometry>
        </mxCell>
        <mxCell id="GecQuVnroi5EFIGODDpq-34" value="" style="endArrow=classic;html=1;rounded=0;entryX=0.462;entryY=-0.006;entryDx=0;entryDy=0;exitX=0.5;exitY=1;exitDx=0;exitDy=0;entryPerimeter=0;" parent="1" source="GecQuVnroi5EFIGODDpq-29" target="GecQuVnroi5EFIGODDpq-8" edge="1">
          <mxGeometry width="50" height="50" relative="1" as="geometry">
            <mxPoint x="220" y="360" as="sourcePoint" />
            <mxPoint x="270" y="310" as="targetPoint" />
          </mxGeometry>
        </mxCell>
      </root>
    </mxGraphModel>
  </diagram>
  <diagram id="yo_9CK3I7teSS0ortCoI" name="Spring实例化流程">
    <mxGraphModel dx="1621" dy="438" grid="1" gridSize="10" guides="1" tooltips="1" connect="1" arrows="1" fold="1" page="1" pageScale="1" pageWidth="827" pageHeight="1169" math="0" shadow="0">
      <root>
        <mxCell id="0" />
        <mxCell id="1" parent="0" />
        <mxCell id="6qrf1iPs2ohBYjxlfWPx-1" value="&amp;lt;bean id=&quot;userService&quot; class=&quot;com.UserService&quot;&amp;gt;&amp;lt;/bean&amp;gt;" style="rounded=0;whiteSpace=wrap;html=1;fontSize=12;fillColor=#ffe6cc;strokeColor=#d79b00;" parent="1" vertex="1">
          <mxGeometry x="-200" y="220" width="170" height="60" as="geometry" />
        </mxCell>
        <mxCell id="6qrf1iPs2ohBYjxlfWPx-2" value="" style="rounded=0;whiteSpace=wrap;html=1;fontSize=16;fillColor=#f9f7ed;strokeColor=#36393d;" parent="1" vertex="1">
          <mxGeometry x="10" y="150" width="420" height="370" as="geometry" />
        </mxCell>
        <mxCell id="6qrf1iPs2ohBYjxlfWPx-3" value="ApplicationContext" style="text;html=1;strokeColor=none;fillColor=none;align=center;verticalAlign=middle;whiteSpace=wrap;rounded=0;fontSize=12;" parent="1" vertex="1">
          <mxGeometry x="190" y="120" width="60" height="30" as="geometry" />
        </mxCell>
        <mxCell id="6qrf1iPs2ohBYjxlfWPx-4" value="BeanDefinition&lt;br style=&quot;font-size: 12px;&quot;&gt;Reader" style="rounded=0;whiteSpace=wrap;html=1;fontSize=12;fillColor=#eeeeee;strokeColor=#36393d;" parent="1" vertex="1">
          <mxGeometry x="25" y="180" width="110" height="330" as="geometry" />
        </mxCell>
        <mxCell id="6qrf1iPs2ohBYjxlfWPx-5" value="Reader" style="text;html=1;strokeColor=none;fillColor=none;align=center;verticalAlign=middle;whiteSpace=wrap;rounded=0;fontSize=12;" parent="1" vertex="1">
          <mxGeometry x="50" y="150" width="60" height="30" as="geometry" />
        </mxCell>
        <mxCell id="6qrf1iPs2ohBYjxlfWPx-6" value="" style="rounded=0;whiteSpace=wrap;html=1;fontSize=16;fillColor=#f5f5f5;fontColor=#333333;strokeColor=#666666;" parent="1" vertex="1">
          <mxGeometry x="150" y="180" width="270" height="330" as="geometry" />
        </mxCell>
        <mxCell id="6qrf1iPs2ohBYjxlfWPx-7" value="" style="rounded=0;whiteSpace=wrap;html=1;fontSize=16;fillColor=#fad9d5;strokeColor=#ae4132;" parent="1" vertex="1">
          <mxGeometry x="164" y="200" width="110" height="40" as="geometry" />
        </mxCell>
        <mxCell id="6qrf1iPs2ohBYjxlfWPx-8" value="" style="rounded=0;whiteSpace=wrap;html=1;fontSize=16;fillColor=#cce5ff;strokeColor=#36393d;" parent="1" vertex="1">
          <mxGeometry x="314" y="444" width="100" height="60" as="geometry" />
        </mxCell>
        <mxCell id="6qrf1iPs2ohBYjxlfWPx-9" value="beanDefinitionMap" style="text;html=1;strokeColor=none;fillColor=none;align=center;verticalAlign=middle;whiteSpace=wrap;rounded=0;fontSize=12;" parent="1" vertex="1">
          <mxGeometry x="189" y="174" width="60" height="30" as="geometry" />
        </mxCell>
        <mxCell id="6qrf1iPs2ohBYjxlfWPx-10" value="singletonObjects" style="text;html=1;strokeColor=none;fillColor=none;align=center;verticalAlign=middle;whiteSpace=wrap;rounded=0;fontSize=12;" parent="1" vertex="1">
          <mxGeometry x="334" y="480" width="60" height="30" as="geometry" />
        </mxCell>
        <mxCell id="6qrf1iPs2ohBYjxlfWPx-11" value="" style="endArrow=classic;html=1;rounded=0;fontSize=9;startSize=6;endSize=6;sourcePerimeterSpacing=0;targetPerimeterSpacing=0;curved=1;exitX=1;exitY=0.5;exitDx=0;exitDy=0;" parent="1" source="6qrf1iPs2ohBYjxlfWPx-1" edge="1">
          <mxGeometry width="50" height="50" relative="1" as="geometry">
            <mxPoint x="120" y="260" as="sourcePoint" />
            <mxPoint x="25" y="250" as="targetPoint" />
          </mxGeometry>
        </mxCell>
        <mxCell id="6qrf1iPs2ohBYjxlfWPx-12" value="" style="endArrow=classic;html=1;rounded=0;fontSize=9;startSize=6;endSize=6;sourcePerimeterSpacing=0;targetPerimeterSpacing=0;curved=1;movable=1;resizable=1;rotatable=1;deletable=1;editable=1;connectable=1;exitX=0.997;exitY=0.185;exitDx=0;exitDy=0;exitPerimeter=0;" parent="1" edge="1">
          <mxGeometry width="50" height="50" relative="1" as="geometry">
            <mxPoint x="134.66999999999985" y="221.05000000000007" as="sourcePoint" />
            <mxPoint x="165" y="221" as="targetPoint" />
          </mxGeometry>
        </mxCell>
        <mxCell id="6qrf1iPs2ohBYjxlfWPx-13" value="BeanDefinition" style="ellipse;whiteSpace=wrap;html=1;fontSize=12;fillColor=#dae8fc;strokeColor=#6c8ebf;rounded=0;" parent="1" vertex="1">
          <mxGeometry x="173.75" y="205" width="87.5" height="30" as="geometry" />
        </mxCell>
        <mxCell id="6qrf1iPs2ohBYjxlfWPx-14" value="userService&lt;br style=&quot;font-size: 12px;&quot;&gt;处理后实例" style="ellipse;whiteSpace=wrap;html=1;fontSize=12;fillColor=#d5e8d4;strokeColor=#82b366;rounded=0;" parent="1" vertex="1">
          <mxGeometry x="317.75" y="450" width="92.5" height="30" as="geometry" />
        </mxCell>
        <mxCell id="6qrf1iPs2ohBYjxlfWPx-15" value="执行 getBean，从单例池获取实例bean" style="text;html=1;strokeColor=none;fillColor=none;align=center;verticalAlign=middle;whiteSpace=wrap;rounded=0;fontSize=12;" parent="1" vertex="1">
          <mxGeometry x="-200" y="320" width="140" height="30" as="geometry" />
        </mxCell>
        <mxCell id="6qrf1iPs2ohBYjxlfWPx-16" value="" style="edgeStyle=elbowEdgeStyle;elbow=vertical;endArrow=classic;html=1;curved=0;rounded=0;endSize=8;startSize=8;fontSize=9;sourcePerimeterSpacing=0;targetPerimeterSpacing=0;exitX=0.5;exitY=1;exitDx=0;exitDy=0;" parent="1" source="6qrf1iPs2ohBYjxlfWPx-8" target="6qrf1iPs2ohBYjxlfWPx-15" edge="1">
          <mxGeometry width="50" height="50" relative="1" as="geometry">
            <mxPoint x="257.5" y="500" as="sourcePoint" />
            <mxPoint x="307.5" y="450" as="targetPoint" />
            <Array as="points">
              <mxPoint x="120" y="530" />
              <mxPoint x="290" y="450" />
              <mxPoint x="110" y="420" />
            </Array>
          </mxGeometry>
        </mxCell>
        <mxCell id="6qrf1iPs2ohBYjxlfWPx-17" value="BeanFactory" style="text;html=1;strokeColor=none;fillColor=none;align=center;verticalAlign=middle;whiteSpace=wrap;rounded=0;fontSize=12;" parent="1" vertex="1">
          <mxGeometry x="247.5" y="150" width="60" height="30" as="geometry" />
        </mxCell>
        <mxCell id="6qrf1iPs2ohBYjxlfWPx-18" value="BeanDefinition&lt;br&gt;RegistryPostProcessor" style="rounded=0;whiteSpace=wrap;html=1;fillColor=#dae8fc;strokeColor=#6c8ebf;" parent="1" vertex="1">
          <mxGeometry x="154" y="260" width="130" height="30" as="geometry" />
        </mxCell>
        <mxCell id="6qrf1iPs2ohBYjxlfWPx-19" value="BeanFactory&lt;br&gt;PostProcessor" style="rounded=0;whiteSpace=wrap;html=1;fillColor=#dae8fc;strokeColor=#6c8ebf;" parent="1" vertex="1">
          <mxGeometry x="154" y="310" width="130" height="30" as="geometry" />
        </mxCell>
        <mxCell id="6qrf1iPs2ohBYjxlfWPx-20" value="" style="endArrow=classic;html=1;rounded=0;exitX=0.5;exitY=1;exitDx=0;exitDy=0;" parent="1" source="6qrf1iPs2ohBYjxlfWPx-7" target="6qrf1iPs2ohBYjxlfWPx-18" edge="1">
          <mxGeometry width="50" height="50" relative="1" as="geometry">
            <mxPoint x="190" y="340" as="sourcePoint" />
            <mxPoint x="240" y="290" as="targetPoint" />
          </mxGeometry>
        </mxCell>
        <mxCell id="6qrf1iPs2ohBYjxlfWPx-22" value="处理后BeanDefinition" style="ellipse;whiteSpace=wrap;html=1;fontSize=12;fillColor=#dae8fc;strokeColor=#6c8ebf;rounded=0;" parent="1" vertex="1">
          <mxGeometry x="169" y="357" width="100" height="39" as="geometry" />
        </mxCell>
        <mxCell id="6qrf1iPs2ohBYjxlfWPx-23" value="userService&lt;br style=&quot;font-size: 12px;&quot;&gt;实例" style="ellipse;whiteSpace=wrap;html=1;fontSize=12;fillColor=#d5e8d4;strokeColor=#82b366;rounded=0;" parent="1" vertex="1">
          <mxGeometry x="172.75" y="420" width="92.5" height="30" as="geometry" />
        </mxCell>
        <mxCell id="6qrf1iPs2ohBYjxlfWPx-24" value="BeanPostProcessor&lt;br&gt;#before()" style="rounded=0;whiteSpace=wrap;html=1;fillColor=#dae8fc;strokeColor=#6c8ebf;" parent="1" vertex="1">
          <mxGeometry x="305" y="240" width="110" height="30" as="geometry" />
        </mxCell>
        <mxCell id="6qrf1iPs2ohBYjxlfWPx-25" value="BeanPostProcessor&lt;br&gt;#after()" style="rounded=0;whiteSpace=wrap;html=1;fillColor=#dae8fc;strokeColor=#6c8ebf;" parent="1" vertex="1">
          <mxGeometry x="305" y="396" width="110" height="30" as="geometry" />
        </mxCell>
        <mxCell id="6qrf1iPs2ohBYjxlfWPx-26" value="" style="endArrow=classic;html=1;rounded=0;exitX=0.5;exitY=1;exitDx=0;exitDy=0;entryX=0.5;entryY=0;entryDx=0;entryDy=0;" parent="1" source="6qrf1iPs2ohBYjxlfWPx-19" target="6qrf1iPs2ohBYjxlfWPx-22" edge="1">
          <mxGeometry width="50" height="50" relative="1" as="geometry">
            <mxPoint x="130" y="340" as="sourcePoint" />
            <mxPoint x="180" y="290" as="targetPoint" />
          </mxGeometry>
        </mxCell>
        <mxCell id="6qrf1iPs2ohBYjxlfWPx-30" value="" style="endArrow=classic;html=1;rounded=0;entryX=0.462;entryY=-0.006;entryDx=0;entryDy=0;exitX=0.5;exitY=1;exitDx=0;exitDy=0;entryPerimeter=0;" parent="1" source="6qrf1iPs2ohBYjxlfWPx-25" target="6qrf1iPs2ohBYjxlfWPx-8" edge="1">
          <mxGeometry width="50" height="50" relative="1" as="geometry">
            <mxPoint x="220" y="360" as="sourcePoint" />
            <mxPoint x="270" y="310" as="targetPoint" />
          </mxGeometry>
        </mxCell>
        <mxCell id="6qrf1iPs2ohBYjxlfWPx-32" value="属性填充populate" style="rounded=0;whiteSpace=wrap;html=1;fillColor=#dae8fc;strokeColor=#6c8ebf;" parent="1" vertex="1">
          <mxGeometry x="164" y="470" width="110" height="30" as="geometry" />
        </mxCell>
        <mxCell id="30zcrJlMeAgkQ6_H4go2-2" value="Aware接口回调" style="rounded=0;whiteSpace=wrap;html=1;fillColor=#dae8fc;strokeColor=#6c8ebf;" parent="1" vertex="1">
          <mxGeometry x="305" y="190" width="110" height="30" as="geometry" />
        </mxCell>
        <mxCell id="30zcrJlMeAgkQ6_H4go2-3" value="InitializingBean&lt;br&gt;接口初始化" style="rounded=0;whiteSpace=wrap;html=1;fillColor=#dae8fc;strokeColor=#6c8ebf;" parent="1" vertex="1">
          <mxGeometry x="305" y="290" width="110" height="30" as="geometry" />
        </mxCell>
        <mxCell id="30zcrJlMeAgkQ6_H4go2-6" value="自定义init-method&lt;br&gt;方法调用" style="rounded=0;whiteSpace=wrap;html=1;fillColor=#dae8fc;strokeColor=#6c8ebf;" parent="1" vertex="1">
          <mxGeometry x="305" y="340" width="110" height="30" as="geometry" />
        </mxCell>
        <mxCell id="30zcrJlMeAgkQ6_H4go2-7" value="" style="endArrow=classic;html=1;rounded=0;exitX=0.5;exitY=1;exitDx=0;exitDy=0;entryX=0.5;entryY=0;entryDx=0;entryDy=0;" parent="1" source="6qrf1iPs2ohBYjxlfWPx-22" target="6qrf1iPs2ohBYjxlfWPx-23" edge="1">
          <mxGeometry width="50" height="50" relative="1" as="geometry">
            <mxPoint x="160" y="370" as="sourcePoint" />
            <mxPoint x="210" y="320" as="targetPoint" />
          </mxGeometry>
        </mxCell>
        <mxCell id="30zcrJlMeAgkQ6_H4go2-8" value="" style="endArrow=classic;html=1;rounded=0;entryX=0.5;entryY=0;entryDx=0;entryDy=0;exitX=0.5;exitY=1;exitDx=0;exitDy=0;" parent="1" source="6qrf1iPs2ohBYjxlfWPx-23" target="6qrf1iPs2ohBYjxlfWPx-32" edge="1">
          <mxGeometry width="50" height="50" relative="1" as="geometry">
            <mxPoint x="160" y="370" as="sourcePoint" />
            <mxPoint x="210" y="320" as="targetPoint" />
          </mxGeometry>
        </mxCell>
        <mxCell id="30zcrJlMeAgkQ6_H4go2-9" value="" style="edgeStyle=elbowEdgeStyle;elbow=horizontal;endArrow=classic;html=1;curved=0;rounded=0;endSize=8;startSize=8;entryX=0;entryY=0.75;entryDx=0;entryDy=0;exitX=1;exitY=0.5;exitDx=0;exitDy=0;" parent="1" source="6qrf1iPs2ohBYjxlfWPx-32" target="30zcrJlMeAgkQ6_H4go2-2" edge="1">
          <mxGeometry width="50" height="50" relative="1" as="geometry">
            <mxPoint x="160" y="370" as="sourcePoint" />
            <mxPoint x="210" y="320" as="targetPoint" />
            <Array as="points">
              <mxPoint x="290" y="350" />
            </Array>
          </mxGeometry>
        </mxCell>
        <mxCell id="30zcrJlMeAgkQ6_H4go2-10" value="" style="endArrow=classic;html=1;rounded=0;exitX=0.5;exitY=1;exitDx=0;exitDy=0;" parent="1" source="30zcrJlMeAgkQ6_H4go2-2" target="6qrf1iPs2ohBYjxlfWPx-24" edge="1">
          <mxGeometry width="50" height="50" relative="1" as="geometry">
            <mxPoint x="160" y="370" as="sourcePoint" />
            <mxPoint x="210" y="320" as="targetPoint" />
          </mxGeometry>
        </mxCell>
        <mxCell id="30zcrJlMeAgkQ6_H4go2-11" value="" style="endArrow=classic;html=1;rounded=0;exitX=0.5;exitY=1;exitDx=0;exitDy=0;" parent="1" source="6qrf1iPs2ohBYjxlfWPx-24" target="30zcrJlMeAgkQ6_H4go2-3" edge="1">
          <mxGeometry width="50" height="50" relative="1" as="geometry">
            <mxPoint x="160" y="370" as="sourcePoint" />
            <mxPoint x="210" y="320" as="targetPoint" />
          </mxGeometry>
        </mxCell>
        <mxCell id="30zcrJlMeAgkQ6_H4go2-12" value="" style="endArrow=classic;html=1;rounded=0;entryX=0.5;entryY=0;entryDx=0;entryDy=0;exitX=0.5;exitY=1;exitDx=0;exitDy=0;" parent="1" source="30zcrJlMeAgkQ6_H4go2-3" target="30zcrJlMeAgkQ6_H4go2-6" edge="1">
          <mxGeometry width="50" height="50" relative="1" as="geometry">
            <mxPoint x="160" y="370" as="sourcePoint" />
            <mxPoint x="210" y="320" as="targetPoint" />
          </mxGeometry>
        </mxCell>
        <mxCell id="30zcrJlMeAgkQ6_H4go2-14" value="" style="endArrow=classic;html=1;rounded=0;entryX=0.5;entryY=0;entryDx=0;entryDy=0;exitX=0.5;exitY=1;exitDx=0;exitDy=0;" parent="1" source="30zcrJlMeAgkQ6_H4go2-6" target="6qrf1iPs2ohBYjxlfWPx-25" edge="1">
          <mxGeometry width="50" height="50" relative="1" as="geometry">
            <mxPoint x="160" y="370" as="sourcePoint" />
            <mxPoint x="210" y="320" as="targetPoint" />
          </mxGeometry>
        </mxCell>
        <mxCell id="30zcrJlMeAgkQ6_H4go2-15" value="" style="endArrow=classic;html=1;rounded=0;exitX=0.5;exitY=1;exitDx=0;exitDy=0;entryX=0.5;entryY=0;entryDx=0;entryDy=0;" parent="1" source="6qrf1iPs2ohBYjxlfWPx-18" target="6qrf1iPs2ohBYjxlfWPx-19" edge="1">
          <mxGeometry width="50" height="50" relative="1" as="geometry">
            <mxPoint x="110" y="370" as="sourcePoint" />
            <mxPoint x="160" y="320" as="targetPoint" />
          </mxGeometry>
        </mxCell>
      </root>
    </mxGraphModel>
  </diagram>
  <diagram id="8Y9OhdI2VCFoKqTkS-8e" name="SpringMVC">
    <mxGraphModel dx="653" dy="593" grid="1" gridSize="10" guides="1" tooltips="1" connect="1" arrows="1" fold="1" page="1" pageScale="1" pageWidth="1169" pageHeight="827" math="0" shadow="0">
      <root>
        <mxCell id="0" />
        <mxCell id="1" parent="0" />
        <mxCell id="3rRR2PBKSjiJleOewkBl-1" value="DispatcherServlet" style="rounded=0;whiteSpace=wrap;html=1;fillColor=#f8cecc;strokeColor=#b85450;" parent="1" vertex="1">
          <mxGeometry x="270" y="150" width="120" height="30" as="geometry" />
        </mxCell>
        <mxCell id="3rRR2PBKSjiJleOewkBl-2" value="HandlerMapping" style="rounded=0;whiteSpace=wrap;html=1;fillColor=#1ba1e2;strokeColor=#006EAF;fontColor=#ffffff;" parent="1" vertex="1">
          <mxGeometry x="482.5" y="75" width="120" height="30" as="geometry" />
        </mxCell>
        <mxCell id="3rRR2PBKSjiJleOewkBl-3" value="HandlerAdapter" style="rounded=0;whiteSpace=wrap;html=1;fillColor=#1ba1e2;fontColor=#ffffff;strokeColor=#006EAF;" parent="1" vertex="1">
          <mxGeometry x="482.5" y="150" width="120" height="30" as="geometry" />
        </mxCell>
        <mxCell id="3rRR2PBKSjiJleOewkBl-4" value="Hander&lt;br&gt;（Controller）" style="rounded=0;whiteSpace=wrap;html=1;fillColor=#1ba1e2;fontColor=#ffffff;strokeColor=#006EAF;" parent="1" vertex="1">
          <mxGeometry x="482.5" y="295" width="120" height="30" as="geometry" />
        </mxCell>
        <mxCell id="3rRR2PBKSjiJleOewkBl-5" value="ViewResolver" style="rounded=0;whiteSpace=wrap;html=1;fillColor=#1ba1e2;fontColor=#ffffff;strokeColor=#006EAF;" parent="1" vertex="1">
          <mxGeometry x="135" y="230" width="110" height="30" as="geometry" />
        </mxCell>
        <mxCell id="3rRR2PBKSjiJleOewkBl-6" value="web.xml&lt;br&gt;（servlet-name）" style="shape=document;whiteSpace=wrap;html=1;boundedLbl=1;size=0.25;fillColor=#dae8fc;strokeColor=#6c8ebf;" parent="1" vertex="1">
          <mxGeometry x="135" y="75" width="120" height="40" as="geometry" />
        </mxCell>
        <mxCell id="3rRR2PBKSjiJleOewkBl-7" value="" style="shape=image;html=1;verticalAlign=top;verticalLabelPosition=bottom;labelBackgroundColor=#ffffff;imageAspect=0;aspect=fixed;image=https://cdn2.iconfinder.com/data/icons/social-media-and-payment/64/-43-128.png" parent="1" vertex="1">
          <mxGeometry x="50" y="140.5" width="49" height="49" as="geometry" />
        </mxCell>
        <mxCell id="3rRR2PBKSjiJleOewkBl-8" value="View&lt;br&gt;（JSP、JSTL..）" style="rounded=0;whiteSpace=wrap;html=1;fillColor=#1ba1e2;fontColor=#ffffff;strokeColor=#006EAF;" parent="1" vertex="1">
          <mxGeometry x="277.5" y="290" width="105" height="40" as="geometry" />
        </mxCell>
        <mxCell id="3rRR2PBKSjiJleOewkBl-9" value="" style="endArrow=classic;html=1;rounded=0;exitX=1;exitY=0.5;exitDx=0;exitDy=0;entryX=0;entryY=0.5;entryDx=0;entryDy=0;" parent="1" source="3rRR2PBKSjiJleOewkBl-7" target="3rRR2PBKSjiJleOewkBl-1" edge="1">
          <mxGeometry width="50" height="50" relative="1" as="geometry">
            <mxPoint x="330" y="230" as="sourcePoint" />
            <mxPoint x="380" y="180" as="targetPoint" />
          </mxGeometry>
        </mxCell>
        <mxCell id="3rRR2PBKSjiJleOewkBl-10" value="" style="endArrow=none;dashed=1;html=1;rounded=0;exitX=1;exitY=0.75;exitDx=0;exitDy=0;entryX=0.5;entryY=0;entryDx=0;entryDy=0;" parent="1" source="3rRR2PBKSjiJleOewkBl-6" target="3rRR2PBKSjiJleOewkBl-1" edge="1">
          <mxGeometry width="50" height="50" relative="1" as="geometry">
            <mxPoint x="330" y="230" as="sourcePoint" />
            <mxPoint x="380" y="180" as="targetPoint" />
          </mxGeometry>
        </mxCell>
        <mxCell id="3rRR2PBKSjiJleOewkBl-11" value="" style="edgeStyle=elbowEdgeStyle;elbow=horizontal;endArrow=classic;html=1;curved=0;rounded=0;endSize=8;startSize=8;entryX=0;entryY=0.5;entryDx=0;entryDy=0;exitX=0.5;exitY=0;exitDx=0;exitDy=0;" parent="1" source="3rRR2PBKSjiJleOewkBl-1" target="3rRR2PBKSjiJleOewkBl-2" edge="1">
          <mxGeometry width="50" height="50" relative="1" as="geometry">
            <mxPoint x="330" y="230" as="sourcePoint" />
            <mxPoint x="380" y="180" as="targetPoint" />
            <Array as="points">
              <mxPoint x="330" y="130" />
            </Array>
          </mxGeometry>
        </mxCell>
        <mxCell id="3rRR2PBKSjiJleOewkBl-12" value="" style="endArrow=classic;html=1;rounded=0;entryX=0;entryY=0.5;entryDx=0;entryDy=0;" parent="1" source="3rRR2PBKSjiJleOewkBl-1" target="3rRR2PBKSjiJleOewkBl-3" edge="1">
          <mxGeometry width="50" height="50" relative="1" as="geometry">
            <mxPoint x="330" y="230" as="sourcePoint" />
            <mxPoint x="380" y="180" as="targetPoint" />
          </mxGeometry>
        </mxCell>
        <mxCell id="3rRR2PBKSjiJleOewkBl-13" value="" style="endArrow=classic;html=1;rounded=0;exitX=0.5;exitY=1;exitDx=0;exitDy=0;entryX=0.5;entryY=0;entryDx=0;entryDy=0;" parent="1" source="3rRR2PBKSjiJleOewkBl-1" target="3rRR2PBKSjiJleOewkBl-5" edge="1">
          <mxGeometry width="50" height="50" relative="1" as="geometry">
            <mxPoint x="330" y="230" as="sourcePoint" />
            <mxPoint x="380" y="180" as="targetPoint" />
          </mxGeometry>
        </mxCell>
        <mxCell id="3rRR2PBKSjiJleOewkBl-14" value="" style="endArrow=classic;html=1;rounded=0;" parent="1" target="3rRR2PBKSjiJleOewkBl-8" edge="1">
          <mxGeometry width="50" height="50" relative="1" as="geometry">
            <mxPoint x="330" y="180" as="sourcePoint" />
            <mxPoint x="380" y="180" as="targetPoint" />
          </mxGeometry>
        </mxCell>
        <mxCell id="3rRR2PBKSjiJleOewkBl-25" value="Model" style="edgeLabel;html=1;align=center;verticalAlign=middle;resizable=0;points=[];" parent="3rRR2PBKSjiJleOewkBl-14" vertex="1" connectable="0">
          <mxGeometry x="-0.3697" relative="1" as="geometry">
            <mxPoint as="offset" />
          </mxGeometry>
        </mxCell>
        <mxCell id="3rRR2PBKSjiJleOewkBl-15" value="" style="edgeStyle=elbowEdgeStyle;elbow=vertical;endArrow=classic;html=1;curved=0;rounded=0;endSize=8;startSize=8;exitX=0;exitY=0.5;exitDx=0;exitDy=0;entryX=0.5;entryY=1;entryDx=0;entryDy=0;" parent="1" source="3rRR2PBKSjiJleOewkBl-8" target="3rRR2PBKSjiJleOewkBl-7" edge="1">
          <mxGeometry width="50" height="50" relative="1" as="geometry">
            <mxPoint x="330" y="230" as="sourcePoint" />
            <mxPoint x="380" y="180" as="targetPoint" />
            <Array as="points">
              <mxPoint x="180" y="310" />
            </Array>
          </mxGeometry>
        </mxCell>
        <mxCell id="3rRR2PBKSjiJleOewkBl-16" value="" style="endArrow=classic;html=1;rounded=0;entryX=0.5;entryY=0;entryDx=0;entryDy=0;exitX=0.5;exitY=1;exitDx=0;exitDy=0;" parent="1" source="3rRR2PBKSjiJleOewkBl-3" target="3rRR2PBKSjiJleOewkBl-4" edge="1">
          <mxGeometry width="50" height="50" relative="1" as="geometry">
            <mxPoint x="330" y="230" as="sourcePoint" />
            <mxPoint x="380" y="180" as="targetPoint" />
          </mxGeometry>
        </mxCell>
        <mxCell id="3rRR2PBKSjiJleOewkBl-17" value="① Http Request" style="text;html=1;strokeColor=none;fillColor=none;align=center;verticalAlign=middle;whiteSpace=wrap;rounded=0;" parent="1" vertex="1">
          <mxGeometry x="130" y="135" width="100" height="30" as="geometry" />
        </mxCell>
        <mxCell id="3rRR2PBKSjiJleOewkBl-18" value="② 寻找处理器" style="text;html=1;strokeColor=none;fillColor=none;align=center;verticalAlign=middle;whiteSpace=wrap;rounded=0;" parent="1" vertex="1">
          <mxGeometry x="340" y="90" width="100" height="30" as="geometry" />
        </mxCell>
        <mxCell id="3rRR2PBKSjiJleOewkBl-19" value="③ 适配器处理器" style="text;html=1;strokeColor=none;fillColor=none;align=center;verticalAlign=middle;whiteSpace=wrap;rounded=0;" parent="1" vertex="1">
          <mxGeometry x="385.5" y="129" width="100" height="30" as="geometry" />
        </mxCell>
        <mxCell id="3rRR2PBKSjiJleOewkBl-20" value="④ 调用处理器" style="text;html=1;strokeColor=none;fillColor=none;align=center;verticalAlign=middle;whiteSpace=wrap;rounded=0;" parent="1" vertex="1">
          <mxGeometry x="537" y="250" width="95" height="30" as="geometry" />
        </mxCell>
        <mxCell id="3rRR2PBKSjiJleOewkBl-21" value="" style="edgeStyle=elbowEdgeStyle;elbow=vertical;endArrow=classic;html=1;curved=0;rounded=0;endSize=8;startSize=8;" parent="1" edge="1">
          <mxGeometry width="50" height="50" relative="1" as="geometry">
            <mxPoint x="543" y="210" as="sourcePoint" />
            <mxPoint x="380" y="180" as="targetPoint" />
            <Array as="points">
              <mxPoint x="460" y="210" />
              <mxPoint x="450" y="210" />
            </Array>
          </mxGeometry>
        </mxCell>
        <mxCell id="3rRR2PBKSjiJleOewkBl-22" value="ModelAndView" style="edgeLabel;html=1;align=center;verticalAlign=middle;resizable=0;points=[];" parent="3rRR2PBKSjiJleOewkBl-21" vertex="1" connectable="0">
          <mxGeometry x="-0.0777" relative="1" as="geometry">
            <mxPoint as="offset" />
          </mxGeometry>
        </mxCell>
        <mxCell id="3rRR2PBKSjiJleOewkBl-23" value="⑤ 返回ModelAndView" style="text;html=1;strokeColor=none;fillColor=none;align=center;verticalAlign=middle;whiteSpace=wrap;rounded=0;" parent="1" vertex="1">
          <mxGeometry x="385.5" y="220" width="130" height="30" as="geometry" />
        </mxCell>
        <mxCell id="3rRR2PBKSjiJleOewkBl-24" value="⑥ 视图处理器" style="text;html=1;strokeColor=none;fillColor=none;align=center;verticalAlign=middle;whiteSpace=wrap;rounded=0;" parent="1" vertex="1">
          <mxGeometry x="175" y="180" width="95" height="30" as="geometry" />
        </mxCell>
        <mxCell id="3rRR2PBKSjiJleOewkBl-26" value="⑦ 返回ModelAndView" style="text;html=1;strokeColor=none;fillColor=none;align=center;verticalAlign=middle;whiteSpace=wrap;rounded=0;" parent="1" vertex="1">
          <mxGeometry x="329" y="250" width="130" height="30" as="geometry" />
        </mxCell>
        <mxCell id="3rRR2PBKSjiJleOewkBl-27" value="⑧ Http Response" style="text;html=1;strokeColor=none;fillColor=none;align=center;verticalAlign=middle;whiteSpace=wrap;rounded=0;" parent="1" vertex="1">
          <mxGeometry x="110" y="280" width="130" height="30" as="geometry" />
        </mxCell>
      </root>
    </mxGraphModel>
  </diagram>
  <diagram id="3e_Y2e4WST651lfp4Pje" name="MyBatis的Executor">
    <mxGraphModel dx="893" dy="593" grid="1" gridSize="10" guides="1" tooltips="1" connect="1" arrows="1" fold="1" page="1" pageScale="1" pageWidth="827" pageHeight="1169" math="0" shadow="0">
      <root>
        <mxCell id="0" />
        <mxCell id="1" parent="0" />
        <mxCell id="7pHJk1_Gp8AjoDmAnL-M-1" value="" style="rounded=0;whiteSpace=wrap;html=1;fillColor=#b1ddf0;strokeColor=#10739e;" vertex="1" parent="1">
          <mxGeometry x="20" y="240" width="100" height="60" as="geometry" />
        </mxCell>
        <mxCell id="7pHJk1_Gp8AjoDmAnL-M-2" value="" style="rounded=0;whiteSpace=wrap;html=1;fillColor=#b1ddf0;strokeColor=#10739e;" vertex="1" parent="1">
          <mxGeometry x="180" y="240" width="100" height="60" as="geometry" />
        </mxCell>
        <mxCell id="7pHJk1_Gp8AjoDmAnL-M-3" value="Executor" style="rounded=0;whiteSpace=wrap;html=1;fillColor=#b1ddf0;strokeColor=#10739e;" vertex="1" parent="1">
          <mxGeometry x="400" y="120" width="80" height="50" as="geometry" />
        </mxCell>
        <mxCell id="7pHJk1_Gp8AjoDmAnL-M-4" value="BaseExecutor" style="rounded=0;whiteSpace=wrap;html=1;fillColor=#b1ddf0;strokeColor=#10739e;" vertex="1" parent="1">
          <mxGeometry x="390" y="240" width="100" height="60" as="geometry" />
        </mxCell>
        <mxCell id="7pHJk1_Gp8AjoDmAnL-M-5" value="SimpleExecutor&lt;br&gt;（简单执行器）" style="rounded=0;whiteSpace=wrap;html=1;fillColor=#b1ddf0;strokeColor=#10739e;" vertex="1" parent="1">
          <mxGeometry x="250" y="380" width="100" height="60" as="geometry" />
        </mxCell>
        <mxCell id="7pHJk1_Gp8AjoDmAnL-M-6" value="ReuseExecutor&lt;br&gt;（可重用执行器）" style="rounded=0;whiteSpace=wrap;html=1;fillColor=#b1ddf0;strokeColor=#10739e;" vertex="1" parent="1">
          <mxGeometry x="390" y="380" width="100" height="60" as="geometry" />
        </mxCell>
        <mxCell id="7pHJk1_Gp8AjoDmAnL-M-7" value="BatchExecutor&lt;br&gt;（批处理执行器）" style="rounded=0;whiteSpace=wrap;html=1;fillColor=#b1ddf0;strokeColor=#10739e;" vertex="1" parent="1">
          <mxGeometry x="530" y="380" width="100" height="60" as="geometry" />
        </mxCell>
        <mxCell id="7pHJk1_Gp8AjoDmAnL-M-8" value="executor" style="rounded=0;whiteSpace=wrap;html=1;fillColor=#d5e8d4;strokeColor=#82b366;" vertex="1" parent="1">
          <mxGeometry x="35" y="270" width="70" height="20" as="geometry" />
        </mxCell>
        <mxCell id="7pHJk1_Gp8AjoDmAnL-M-9" value="sqlSession" style="text;html=1;strokeColor=none;fillColor=none;align=center;verticalAlign=middle;whiteSpace=wrap;rounded=0;" vertex="1" parent="1">
          <mxGeometry x="40" y="240" width="60" height="30" as="geometry" />
        </mxCell>
        <mxCell id="7pHJk1_Gp8AjoDmAnL-M-10" value="CachingExecutor" style="text;html=1;strokeColor=none;fillColor=none;align=center;verticalAlign=middle;whiteSpace=wrap;rounded=0;" vertex="1" parent="1">
          <mxGeometry x="170" y="240" width="120" height="30" as="geometry" />
        </mxCell>
        <mxCell id="7pHJk1_Gp8AjoDmAnL-M-11" value="delegate" style="rounded=0;whiteSpace=wrap;html=1;fillColor=#d5e8d4;strokeColor=#82b366;" vertex="1" parent="1">
          <mxGeometry x="195" y="270" width="70" height="20" as="geometry" />
        </mxCell>
        <mxCell id="7pHJk1_Gp8AjoDmAnL-M-14" value="一级缓存" style="rounded=0;whiteSpace=wrap;html=1;fillColor=#d5e8d4;strokeColor=#82b366;" vertex="1" parent="1">
          <mxGeometry x="480" y="246" width="70" height="20" as="geometry" />
        </mxCell>
        <mxCell id="7pHJk1_Gp8AjoDmAnL-M-15" value="获取连接" style="rounded=0;whiteSpace=wrap;html=1;fillColor=#d5e8d4;strokeColor=#82b366;" vertex="1" parent="1">
          <mxGeometry x="480" y="275" width="70" height="20" as="geometry" />
        </mxCell>
        <mxCell id="7pHJk1_Gp8AjoDmAnL-M-16" value="" style="endArrow=blockThin;html=1;rounded=0;entryX=0.5;entryY=1;entryDx=0;entryDy=0;endFill=0;" edge="1" parent="1" source="7pHJk1_Gp8AjoDmAnL-M-4" target="7pHJk1_Gp8AjoDmAnL-M-3">
          <mxGeometry width="50" height="50" relative="1" as="geometry">
            <mxPoint x="310" y="310" as="sourcePoint" />
            <mxPoint x="360" y="260" as="targetPoint" />
          </mxGeometry>
        </mxCell>
        <mxCell id="7pHJk1_Gp8AjoDmAnL-M-18" value="" style="edgeStyle=elbowEdgeStyle;elbow=vertical;endArrow=blockThin;html=1;curved=0;rounded=0;endSize=6;startSize=6;entryX=0.5;entryY=1;entryDx=0;entryDy=0;exitX=0.5;exitY=0;exitDx=0;exitDy=0;endFill=0;" edge="1" parent="1" source="7pHJk1_Gp8AjoDmAnL-M-10" target="7pHJk1_Gp8AjoDmAnL-M-3">
          <mxGeometry width="50" height="50" relative="1" as="geometry">
            <mxPoint x="220" y="240" as="sourcePoint" />
            <mxPoint x="270" y="190" as="targetPoint" />
            <Array as="points">
              <mxPoint x="430" y="210" />
            </Array>
          </mxGeometry>
        </mxCell>
        <mxCell id="7pHJk1_Gp8AjoDmAnL-M-19" value="" style="endArrow=classic;html=1;rounded=0;exitX=1;exitY=0.5;exitDx=0;exitDy=0;" edge="1" parent="1" source="7pHJk1_Gp8AjoDmAnL-M-11">
          <mxGeometry width="50" height="50" relative="1" as="geometry">
            <mxPoint x="310" y="300" as="sourcePoint" />
            <mxPoint x="390" y="280" as="targetPoint" />
          </mxGeometry>
        </mxCell>
        <mxCell id="7pHJk1_Gp8AjoDmAnL-M-20" value="" style="endArrow=blockThin;html=1;rounded=0;entryX=0.5;entryY=1;entryDx=0;entryDy=0;exitX=0.5;exitY=0;exitDx=0;exitDy=0;endFill=0;" edge="1" parent="1" source="7pHJk1_Gp8AjoDmAnL-M-6" target="7pHJk1_Gp8AjoDmAnL-M-4">
          <mxGeometry width="50" height="50" relative="1" as="geometry">
            <mxPoint x="310" y="300" as="sourcePoint" />
            <mxPoint x="360" y="250" as="targetPoint" />
          </mxGeometry>
        </mxCell>
        <mxCell id="7pHJk1_Gp8AjoDmAnL-M-21" value="" style="edgeStyle=elbowEdgeStyle;elbow=vertical;endArrow=blockThin;html=1;curved=0;rounded=0;endSize=6;startSize=6;exitX=0.5;exitY=0;exitDx=0;exitDy=0;endFill=0;" edge="1" parent="1" source="7pHJk1_Gp8AjoDmAnL-M-5">
          <mxGeometry width="50" height="50" relative="1" as="geometry">
            <mxPoint x="300" y="360" as="sourcePoint" />
            <mxPoint x="440" y="300" as="targetPoint" />
          </mxGeometry>
        </mxCell>
        <mxCell id="7pHJk1_Gp8AjoDmAnL-M-22" value="" style="edgeStyle=elbowEdgeStyle;elbow=vertical;endArrow=blockThin;html=1;curved=0;rounded=0;endSize=6;startSize=6;exitX=0.5;exitY=0;exitDx=0;exitDy=0;endFill=0;" edge="1" parent="1" source="7pHJk1_Gp8AjoDmAnL-M-7">
          <mxGeometry width="50" height="50" relative="1" as="geometry">
            <mxPoint x="580" y="360" as="sourcePoint" />
            <mxPoint x="440" y="300" as="targetPoint" />
          </mxGeometry>
        </mxCell>
        <mxCell id="7pHJk1_Gp8AjoDmAnL-M-23" value="二级缓存" style="rounded=0;whiteSpace=wrap;html=1;fillColor=#d5e8d4;strokeColor=#82b366;" vertex="1" parent="1">
          <mxGeometry x="277" y="245" width="70" height="20" as="geometry" />
        </mxCell>
        <mxCell id="7pHJk1_Gp8AjoDmAnL-M-24" value="" style="endArrow=classic;html=1;rounded=0;exitX=1;exitY=0.75;exitDx=0;exitDy=0;entryX=0;entryY=0.75;entryDx=0;entryDy=0;" edge="1" parent="1">
          <mxGeometry width="50" height="50" relative="1" as="geometry">
            <mxPoint x="105" y="281" as="sourcePoint" />
            <mxPoint x="180" y="281" as="targetPoint" />
          </mxGeometry>
        </mxCell>
      </root>
    </mxGraphModel>
  </diagram>
</mxfile>
